<svg width="40" height="40" viewBox="0 0 40 40" fill="none" xmlns="http://www.w3.org/2000/svg">
<path d="M0 0V28.6158L1.47352 24.9114C2.45321 22.2346 3.42493 19.5658 4.40462 16.8811C5.71087 13.2324 6.19673 12.4836 7.25607 10.7787C8.95261 8.06214 10.7845 6.65206 12.7599 6.5724C13.3174 6.5485 13.7794 6.71579 14.1617 7.05835C14.5281 7.40092 14.7431 7.79924 14.7511 8.26927C14.775 8.7632 14.6635 9.16949 14.4484 9.49612C14.1219 9.96614 13.6041 10.2211 12.9112 10.2609L10.3305 10.2211C9.23138 10.2768 8.21983 11.3045 7.31979 13.328C7.30386 13.3679 7.2959 13.3997 7.27997 13.4316L14.7431 30.4402C14.9821 30.942 15.1971 31.2687 15.4042 31.4439C15.7547 31.7228 16.4397 31.9299 17.4592 32.0733V33.3639H15.5954C14.8068 33.1806 13.9546 33.093 13.0307 33.093C12.1864 33.093 11.374 33.1806 10.6014 33.3639H8.72162V32.0733H9.06412C9.41458 32.0733 9.71724 32.0574 9.98009 32.0175C10.2589 31.9697 10.458 31.8821 10.5934 31.7387C10.7129 31.5953 10.7766 31.4121 10.7766 31.189C10.7766 30.9341 10.7129 30.6871 10.5775 30.4402L5.67105 17.5901L1.87176 30.3764C1.81601 30.6075 1.75229 30.8544 1.69654 31.1173C1.69654 31.4041 1.83194 31.6351 2.11868 31.8104C2.39745 31.9857 2.88331 32.0733 3.60016 32.0733H3.81521V33.3639H1.92752C1.40183 33.1806 0.80446 33.093 0.127439 33.093C0.0796495 33.093 0.0398248 33.101 0 33.101V40H40V0H0Z" fill="#CCCC66"/>
</svg>
